<svg xmlns="http://www.w3.org/2000/svg" width="1200" height="444" viewBox="0 0 1200 444">
<rect width="100%" height="100%" fill="#ffffff"/>
<style>text{font-family:system-ui,-apple-system,sans-serif;fill:#1f2937}.title{font-size:22px;font-weight:700}.label{font-size:13px}.tick{font-size:12px;fill:#4b5563}.value{font-size:12px;font-weight:600}</style>
<text x="300" y="32" class="title">Execution time (bar length relative to row worst)</text>
<rect x="300" y="50" width="15" height="15" rx="2" fill="#2563eb"/>
<text x="322" y="63" class="label">JDK 25 · orig</text>
<rect x="450" y="50" width="15" height="15" rx="2" fill="#ea580c"/>
<text x="472" y="63" class="label">JDK 25 · ffm</text>
<line x1="300.0" y1="93" x2="300.0" y2="396" stroke="#e5e7eb"/>
<text x="300.0" y="419" text-anchor="middle" class="tick">0%</text>
<line x1="462.5" y1="93" x2="462.5" y2="396" stroke="#e5e7eb"/>
<text x="462.5" y="419" text-anchor="middle" class="tick">25%</text>
<line x1="625.0" y1="93" x2="625.0" y2="396" stroke="#e5e7eb"/>
<text x="625.0" y="419" text-anchor="middle" class="tick">50%</text>
<line x1="787.5" y1="93" x2="787.5" y2="396" stroke="#e5e7eb"/>
<text x="787.5" y="419" text-anchor="middle" class="tick">75%</text>
<line x1="950.0" y1="93" x2="950.0" y2="396" stroke="#e5e7eb"/>
<text x="950.0" y="419" text-anchor="middle" class="tick">100%</text>
<line x1="300.0" y1="93" x2="300.0" y2="396" stroke="#6b7280" stroke-width="1.5"/>
<text x="288" y="142.0" text-anchor="end" class="label">findDirectByteBufferFrameCompressedSizeThroughput</text>
<rect x="300.0" y="117.5" width="650.0" height="18" rx="2" fill="#2563eb"/>
<text x="956.0" y="130.5" text-anchor="start" class="value">0.068 ± 0.001 us/op (0.00%)</text>
<rect x="300.0" y="140.5" width="315.4" height="18" rx="2" fill="#ea580c"/>
<text x="621.4" y="153.5" text-anchor="start" class="value">★ 0.033 ± 0.001 us/op (-51.47%)</text>
<text x="288" y="208.0" text-anchor="end" class="label">getFrameContentSizeDirectThroughput</text>
<rect x="300.0" y="183.5" width="650.0" height="18" rx="2" fill="#2563eb"/>
<text x="956.0" y="196.5" text-anchor="start" class="value">0.059 ± 0.001 us/op (0.00%)</text>
<rect x="300.0" y="206.5" width="264.4" height="18" rx="2" fill="#ea580c"/>
<text x="570.4" y="219.5" text-anchor="start" class="value">★ 0.024 ± 0.001 us/op (-59.32%)</text>
<text x="288" y="274.0" text-anchor="end" class="label">getFrameContentSizeHeapMagiclessThroughput</text>
<rect x="300.0" y="249.5" width="650.0" height="18" rx="2" fill="#2563eb"/>
<text x="956.0" y="262.5" text-anchor="start" class="value">0.048 ± 0.001 us/op (0.00%)</text>
<rect x="300.0" y="272.5" width="189.6" height="18" rx="2" fill="#ea580c"/>
<text x="495.6" y="285.5" text-anchor="start" class="value">★ 0.014 ± 0.001 us/op (-70.83%)</text>
<text x="288" y="340.0" text-anchor="end" class="label">getFrameContentSizeHeapThroughput</text>
<rect x="300.0" y="315.5" width="650.0" height="18" rx="2" fill="#2563eb"/>
<text x="956.0" y="328.5" text-anchor="start" class="value">0.048 ± 0.001 us/op (0.00%)</text>
<rect x="300.0" y="338.5" width="203.1" height="18" rx="2" fill="#ea580c"/>
<text x="509.1" y="351.5" text-anchor="start" class="value">★ 0.015 ± 0.001 us/op (-68.75%)</text>
</svg>
