<svg xmlns="http://www.w3.org/2000/svg" width="1200" height="810" viewBox="0 0 1200 810">
<rect width="100%" height="100%" fill="#ffffff"/>
<style>text{font-family:system-ui,-apple-system,sans-serif;fill:#1f2937}.title{font-size:22px;font-weight:700}.label{font-size:13px}.tick{font-size:12px;fill:#4b5563}.value{font-size:12px;font-weight:600}</style>
<text x="300" y="32" class="title">Estimated native allocation</text>
<rect x="300" y="50" width="15" height="15" rx="2" fill="#2563eb"/>
<text x="322" y="63" class="label">JDK 25 · orig</text>
<rect x="450" y="50" width="15" height="15" rx="2" fill="#ea580c"/>
<text x="472" y="63" class="label">JDK 25 · ffm</text>
<rect x="600" y="50" width="15" height="15" rx="2" fill="#16a34a"/>
<text x="622" y="63" class="label">JDK 25 · ffm-arena</text>
<line x1="300.0" y1="93" x2="300.0" y2="762" stroke="#e5e7eb"/>
<text x="300.0" y="785" text-anchor="middle" class="tick">0%</text>
<line x1="462.5" y1="93" x2="462.5" y2="762" stroke="#e5e7eb"/>
<text x="462.5" y="785" text-anchor="middle" class="tick">25%</text>
<line x1="625.0" y1="93" x2="625.0" y2="762" stroke="#e5e7eb"/>
<text x="625.0" y="785" text-anchor="middle" class="tick">50%</text>
<line x1="787.5" y1="93" x2="787.5" y2="762" stroke="#e5e7eb"/>
<text x="787.5" y="785" text-anchor="middle" class="tick">75%</text>
<line x1="950.0" y1="93" x2="950.0" y2="762" stroke="#e5e7eb"/>
<text x="950.0" y="785" text-anchor="middle" class="tick">100%</text>
<line x1="300.0" y1="93" x2="300.0" y2="762" stroke="#6b7280" stroke-width="1.5"/>
<text x="288" y="154.0" text-anchor="end" class="label">chunkSize=1 byte</text>
<rect x="300.0" y="118.0" width="648.9" height="18" rx="2" fill="#2563eb"/>
<text x="954.9" y="131.0" text-anchor="start" class="value">1,368,919.0 B/op (0.00%)</text>
<rect x="300.0" y="141.0" width="650.0" height="18" rx="2" fill="#ea580c"/>
<text x="956.0" y="154.0" text-anchor="start" class="value">1,371,327.6 B/op (+0.18%)</text>
<rect x="300.0" y="164.0" width="632.6" height="18" rx="2" fill="#16a34a"/>
<text x="938.6" y="177.0" text-anchor="start" class="value">★ 1,334,562.2 B/op (-2.51%)</text>
<text x="288" y="244.0" text-anchor="end" class="label">chunkSize=8 bytes</text>
<rect x="300.0" y="208.0" width="644.3" height="18" rx="2" fill="#2563eb"/>
<text x="950.3" y="221.0" text-anchor="start" class="value">★ 1,366,543.9 B/op (0.00%)</text>
<rect x="300.0" y="231.0" width="649.7" height="18" rx="2" fill="#ea580c"/>
<text x="955.7" y="244.0" text-anchor="start" class="value">1,378,188.3 B/op (+0.85%)</text>
<rect x="300.0" y="254.0" width="650.0" height="18" rx="2" fill="#16a34a"/>
<text x="956.0" y="267.0" text-anchor="start" class="value">1,378,728.4 B/op (+0.89%)</text>
<text x="288" y="334.0" text-anchor="end" class="label">chunkSize=64 bytes</text>
<rect x="300.0" y="298.0" width="650.0" height="18" rx="2" fill="#2563eb"/>
<text x="956.0" y="311.0" text-anchor="start" class="value">1,361,649.4 B/op (0.00%)</text>
<rect x="300.0" y="321.0" width="644.2" height="18" rx="2" fill="#ea580c"/>
<text x="950.2" y="334.0" text-anchor="start" class="value">1,349,551.9 B/op (-0.89%)</text>
<rect x="300.0" y="344.0" width="620.6" height="18" rx="2" fill="#16a34a"/>
<text x="926.6" y="357.0" text-anchor="start" class="value">★ 1,300,051.9 B/op (-4.52%)</text>
<text x="288" y="424.0" text-anchor="end" class="label">chunkSize=512 bytes</text>
<rect x="300.0" y="388.0" width="646.5" height="18" rx="2" fill="#2563eb"/>
<text x="952.5" y="401.0" text-anchor="start" class="value">1,348,398.2 B/op (0.00%)</text>
<rect x="300.0" y="411.0" width="650.0" height="18" rx="2" fill="#ea580c"/>
<text x="956.0" y="424.0" text-anchor="start" class="value">1,355,758.1 B/op (+0.55%)</text>
<rect x="300.0" y="434.0" width="610.0" height="18" rx="2" fill="#16a34a"/>
<text x="916.0" y="447.0" text-anchor="start" class="value">★ 1,272,417.2 B/op (-5.63%)</text>
<text x="288" y="514.0" text-anchor="end" class="label">chunkSize=4096 bytes</text>
<rect x="300.0" y="478.0" width="650.0" height="18" rx="2" fill="#2563eb"/>
<text x="956.0" y="491.0" text-anchor="start" class="value">1,354,446.8 B/op (0.00%)</text>
<rect x="300.0" y="501.0" width="649.4" height="18" rx="2" fill="#ea580c"/>
<text x="955.4" y="514.0" text-anchor="start" class="value">1,353,189.3 B/op (-0.09%)</text>
<rect x="300.0" y="524.0" width="592.6" height="18" rx="2" fill="#16a34a"/>
<text x="898.6" y="537.0" text-anchor="start" class="value">★ 1,234,888.3 B/op (-8.83%)</text>
<text x="288" y="604.0" text-anchor="end" class="label">chunkSize=16384 bytes</text>
<rect x="300.0" y="568.0" width="650.0" height="18" rx="2" fill="#2563eb"/>
<text x="956.0" y="581.0" text-anchor="start" class="value">1,340,453.3 B/op (0.00%)</text>
<rect x="300.0" y="591.0" width="647.6" height="18" rx="2" fill="#ea580c"/>
<text x="953.6" y="604.0" text-anchor="start" class="value">1,335,501.2 B/op (-0.37%)</text>
<rect x="300.0" y="614.0" width="613.6" height="18" rx="2" fill="#16a34a"/>
<text x="919.6" y="627.0" text-anchor="start" class="value">★ 1,265,361.2 B/op (-5.60%)</text>
<text x="288" y="694.0" text-anchor="end" class="label">chunkSize=65536 bytes</text>
<rect x="300.0" y="658.0" width="645.0" height="18" rx="2" fill="#2563eb"/>
<text x="951.0" y="671.0" text-anchor="start" class="value">1,340,401.4 B/op (0.00%)</text>
<rect x="300.0" y="681.0" width="650.0" height="18" rx="2" fill="#ea580c"/>
<text x="956.0" y="694.0" text-anchor="start" class="value">1,350,865.9 B/op (+0.78%)</text>
<rect x="300.0" y="704.0" width="609.4" height="18" rx="2" fill="#16a34a"/>
<text x="915.4" y="717.0" text-anchor="start" class="value">★ 1,266,517.8 B/op (-5.51%)</text>
</svg>
